<svg width="1200" height="630" viewBox="0 0 1200 630" fill="none" xmlns="http://www.w3.org/2000/svg">
  <rect width="1200" height="630" fill="#F7F3EA"/>
  <path d="M0 70H1200M0 140H1200M0 210H1200M0 280H1200M0 350H1200M0 420H1200M0 490H1200M0 560H1200" stroke="#D8D2C4" stroke-width="1"/>
  <path d="M100 0V630M200 0V630M300 0V630M400 0V630M500 0V630M600 0V630M700 0V630M800 0V630M900 0V630M1000 0V630M1100 0V630" stroke="#D8D2C4" stroke-width="1"/>
  <rect x="82" y="92" width="280" height="95" fill="#FFFFFF" stroke="#D8D2C4" stroke-width="2"/>
  <rect x="82" y="222" width="250" height="95" fill="#FFFFFF" stroke="#D8D2C4" stroke-width="2"/>
  <rect x="82" y="352" width="300" height="95" fill="#FFFFFF" stroke="#D8D2C4" stroke-width="2"/>
  <path d="M410 142C520 158 548 188 640 204" stroke="#1F6B4E" stroke-width="4" stroke-dasharray="12 16"/>
  <path d="M390 282C512 270 552 268 660 286" stroke="#1F6B4E" stroke-width="4" stroke-dasharray="12 16"/>
  <path d="M420 402C538 388 565 358 672 342" stroke="#1F6B4E" stroke-width="4" stroke-dasharray="12 16"/>
  <rect x="695" y="82" width="390" height="105" fill="#FFFFFF" stroke="#1F6B4E" stroke-width="3"/>
  <rect x="695" y="222" width="390" height="105" fill="#FFFFFF" stroke="#D8D2C4" stroke-width="2"/>
  <rect x="695" y="362" width="390" height="105" fill="#FFFFFF" stroke="#D8D2C4" stroke-width="2"/>
  <text x="82" y="552" fill="#111111" font-family="Inter, Arial, sans-serif" font-size="52" font-weight="700">ClearOpsHK</text>
  <text x="82" y="594" fill="#5E625E" font-family="Arial, sans-serif" font-size="28">香港小生意營運系統</text>
  <text x="724" y="145" fill="#1F6B4E" font-family="Arial, sans-serif" font-size="32" font-weight="700">清楚、可追蹤、可交接</text>
</svg>
